<svg xmlns="http://www.w3.org/2000/svg" width="1600" height="900" viewBox="0 0 1600 900">
  <defs>
    <linearGradient id="g" x1="0" y1="0" x2="0" y2="1">
      <stop offset="0" stop-color="#0A193A"/>
      <stop offset="1" stop-color="#0A1F6A"/>
    </linearGradient>
  </defs>
  <rect width="1600" height="900" fill="url(#g)"/>
  <g opacity="0.16" fill="#ffffff">
    <rect x="120" y="180" width="1360" height="20" rx="10"/>
    <rect x="120" y="360" width="1360" height="20" rx="10"/>
    <rect x="120" y="540" width="1360" height="20" rx="10"/>
    <rect x="120" y="720" width="1360" height="20" rx="10"/>
  </g>
  <g opacity="0.6">
    <rect x="180" y="210" width="80" height="130" fill="#2563EB" rx="6"/>
    <rect x="270" y="210" width="70" height="130" fill="#1D4ED8" rx="6"/>
    <rect x="350" y="210" width="84" height="130" fill="#38BDF8" rx="6"/>
    <rect x="450" y="210" width="72" height="130" fill="#0EA5E9" rx="6"/>
    <rect x="540" y="210" width="90" height="130" fill="#60A5FA" rx="6"/>
    <rect x="640" y="210" width="74" height="130" fill="#3B82F6" rx="6"/>

    <rect x="860" y="390" width="80" height="130" fill="#2563EB" rx="6"/>
    <rect x="950" y="390" width="70" height="130" fill="#1D4ED8" rx="6"/>
    <rect x="1030" y="390" width="84" height="130" fill="#38BDF8" rx="6"/>
    <rect x="1130" y="390" width="72" height="130" fill="#0EA5E9" rx="6"/>
    <rect x="1220" y="390" width="90" height="130" fill="#60A5FA" rx="6"/>
    <rect x="1320" y="390" width="74" height="130" fill="#3B82F6" rx="6"/>
  </g>
  <text x="800" y="120" font-family="Segoe UI, Roboto, Arial, sans-serif" font-size="52" text-anchor="middle" fill="#93C5FD" opacity="0.85">
    RamShila VidyaMandir Library
  </text>
</svg>
